<svg xmlns="http://www.w3.org/2000/svg" viewBox="0 0 440 550"><path d="M398.8 455.8c-.6-3.5-1.2-6.9-1.8-10.3-7.2-39.4-19-102-64.1-135.9 3.3-22.1 5-56.3 5-107.3C337.9 120.9 285.1 55 220 55c-44.4 0-72.6 31.4-72.6 31.4-27.5 27-45.3 68.8-45.3 116 0 50.8 1.8 85.1 5 107.1-45.2 33.6-56.8 96.7-64.1 136.1-.6 3.4-1.2 6.9-1.8 10.3-3.1 18.2 9.2 35.5 27.4 38.6 1.9.3 3.8.5 5.6.5h117l174.6-.1c1.9 0 3.7-.2 5.6-.5 18.2-3.1 30.5-20.4 27.4-38.6zM220 379.4l-62.2-31.7 32.2-50.8c8.7 4.5 20.3 7 29.9 7 9.7 0 21-2.6 29.8-7.1l32.2 50.9-61.9 31.7zm0-97.5c-59.2 0-84.6-80-79.5-105 65-56.6 122.6-52.7 122.6-52.7s10.3 32.1 36.9 70.7c-4.7 38.2-43.4 87-80 87z"/></svg>