<svg xmlns="http://www.w3.org/2000/svg" viewBox="0 0 45.7 57.1"><path d="M32.1 25.4c1.2-.3 2.3-1.3 2.5-3.5.2-1.8-.3-2.8-1-3.2 1.9-7.8-3.4-9.3-3.4-9.3s-3.9-6.7-11.6-2c-1 .6-2.5 1.7-3.4 2.9-1.5 1.5-2.4 4.1-2.6 8.1-.9.4-1.7 1.3-1.5 3.5.2 2.3 1.4 3.3 2.7 3.5 1.7 4.2 5.1 7.6 9.1 7.6 4.1.1 7.5-3.4 9.2-7.6zM23 31.1c-4.6 0-8.4-6.3-8.4-11.5 0-.7 0-1.4.1-2 6.8.3 10.8-2.4 13-4.8 2.1 2.1 3.2 4.7 3.7 6.6v.2c-.1 5.2-3.8 11.5-8.4 11.5zM20.3 39l.5-2.2c.1-.3.2-.5.4-.6-.1 0-.1-.1-.2-.1l-4.8-4-2.9.7c-5 1.2-8.4 5.3-8.4 10.1v6.3c0 1.2 1.1 2.2 2.4 2.2h12.4l1.9-10.8c-.9 0-1.5-.8-1.3-1.6zm12.1-6.3l-2.9-.7-4.8 4c-.1 0-.1.1-.2.1.2.2.3.4.4.6l.5 2.2c.2.8-.4 1.6-1.3 1.6L26 51.3h12.4c1.3 0 2.3-1 2.3-2.2v-6.3c.1-4.7-3.3-8.9-8.3-10.1z"/></svg>