<?xml version="1.0" encoding="utf-8"?>
<!-- Generator: Adobe Illustrator 21.1.0, SVG Export Plug-In . SVG Version: 6.00 Build 0)  -->
<svg version="1.1" id="Слой_1" xmlns="http://www.w3.org/2000/svg" xmlns:xlink="http://www.w3.org/1999/xlink" x="0px" y="0px"
	 viewBox="0 0 440 550" style="enable-background:new 0 0 440 550;" xml:space="preserve">
<g>
	<path d="M398.8,455.8c-0.6-3.5-1.2-6.9-1.8-10.3c-7.2-39.4-19-102-64.1-135.9c3.3-22.1,5-56.3,5-107.3C337.9,120.9,285.1,55,220,55
		c-44.4,0-72.6,31.4-72.6,31.4c-27.5,27-45.3,68.8-45.3,116c0,50.8,1.8,85.1,5,107.1C61.9,343.1,50.3,406.2,43,445.6
		c-0.6,3.4-1.2,6.9-1.8,10.3c-3.1,18.2,9.2,35.5,27.4,38.6c1.9,0.3,3.8,0.5,5.6,0.5l117,0l0,0l174.6-0.1c1.9,0,3.7-0.2,5.6-0.5
		C389.6,491.3,401.9,474,398.8,455.8z M220,379.4l-62.2-31.7l32.2-50.8c8.7,4.5,20.3,7,29.9,7c9.7,0,21-2.6,29.8-7.1l32.2,50.9
		L220,379.4z M220,281.9c-59.2,0-84.6-80-79.5-105c65-56.6,122.6-52.7,122.6-52.7s10.3,32.1,36.9,70.7
		C295.3,233.1,256.6,281.9,220,281.9z"/>
</g>
</svg>
