<?xml version="1.0" encoding="utf-8"?>
<!-- Generator: Adobe Illustrator 21.1.0, SVG Export Plug-In . SVG Version: 6.00 Build 0)  -->
<svg version="1.1" id="Слой_1" xmlns="http://www.w3.org/2000/svg" xmlns:xlink="http://www.w3.org/1999/xlink" x="0px" y="0px"
	 viewBox="0 0 45.7 57.1" style="enable-background:new 0 0 45.7 57.1;" xml:space="preserve">
<g>
	<g>
		<path d="M32.1,25.4c1.2-0.3,2.3-1.3,2.5-3.5c0.2-1.8-0.3-2.8-1-3.2c1.9-7.8-3.4-9.3-3.4-9.3s-3.9-6.7-11.6-2
			c-1,0.6-2.5,1.7-3.4,2.9c-1.5,1.5-2.4,4.1-2.6,8.1c-0.9,0.4-1.7,1.3-1.5,3.5c0.2,2.3,1.4,3.3,2.7,3.5c1.7,4.2,5.1,7.6,9.1,7.6
			C27,33.1,30.4,29.6,32.1,25.4z M23,31.1c-4.6,0-8.4-6.3-8.4-11.5c0-0.7,0-1.4,0.1-2c6.8,0.3,10.8-2.4,13-4.8
			c2.1,2.1,3.2,4.7,3.7,6.6c0,0.1,0,0.1,0,0.2C31.3,24.8,27.6,31.1,23,31.1z"/>
		<path d="M20.3,39l0.5-2.2c0.1-0.3,0.2-0.5,0.4-0.6c-0.1,0-0.1-0.1-0.2-0.1l-4.8-4l-2.9,0.7c-5,1.2-8.4,5.3-8.4,10.1v6.3
			c0,1.2,1.1,2.2,2.4,2.2h12.4l1.9-10.8C20.7,40.6,20.1,39.8,20.3,39z"/>
		<path d="M32.4,32.7L29.5,32l-4.8,4c-0.1,0-0.1,0.1-0.2,0.1c0.2,0.2,0.3,0.4,0.4,0.6l0.5,2.2c0.2,0.8-0.4,1.6-1.3,1.6l1.9,10.8
			h12.4c1.3,0,2.3-1,2.3-2.2v-6.3C40.8,38.1,37.4,33.9,32.4,32.7z"/>
	</g>
</g>
</svg>
